<svg xmlns="http://www.w3.org/2000/svg" width="32" height="32" viewBox="0 0 32 32">
  <defs>
    <linearGradient id="coin" x1="0" y1="0" x2="0" y2="1">
      <stop offset="0" stop-color="#f6d77d"></stop>
      <stop offset="1" stop-color="#c8951f"></stop>
    </linearGradient>
  </defs>

  <!-- Coin -->
  <circle cx="16" cy="16" r="15" fill="url(#coin)" stroke="#8c6b00" stroke-width="1"></circle>

  <!-- Tiny ™ (it will be small at 32px, but included) -->
  <text x="21.5" y="9" font-size="4.3" font-family="Arial, Helvetica, sans-serif" fill="#2b1a00">™</text>

  <!-- Stylized eagle (simple, readable at 32px) -->
  <g fill="#2b1a00">
    <!-- wings -->
    <path d="M6 15c2.2-3.4 6.7-5.3 10-5.3S23.8 11.6 26 15h-4.2c-1.4-1.3-3.3-2.1-5.8-2.1S11.6 13.7 10.2 15H6z"></path>
    <!-- head / beak -->
    <path d="M17.8 12.3c.9-.8 2.1-1.2 3.4-1.2-.8.3-1.4.7-1.9 1.4l.6.5c-.6.9-1.7 1.2-2.7 1 .1.3.2.7.2 1-1.6-.2-2.8-1.5-2.8-3.1 0-.3.1-.6.2-.9.5.5 1.6.7 2.2.3z"></path>
  </g>

  <!-- GR8 -->
  <text x="16" y="22.5" font-size="8.6" font-weight="700" font-family="Arial, Helvetica, sans-serif" text-anchor="middle" fill="#2b1a00">
    GR8
  </text>
</svg>
